<?xml version="1.0" encoding="utf-8"?>
<!-- Generator: Adobe Illustrator 15.0.0, SVG Export Plug-In . SVG Version: 6.00 Build 0)  -->
<!DOCTYPE svg PUBLIC "-//W3C//DTD SVG 1.1//EN" "http://www.w3.org/Graphics/SVG/1.1/DTD/svg11.dtd">
<svg version="1.1" id="Layer_1" xmlns="http://www.w3.org/2000/svg" xmlns:xlink="http://www.w3.org/1999/xlink" x="0px" y="0px"
	 width="138.5px" height="163.167px" viewBox="0 0 138.5 163.167" enable-background="new 0 0 138.5 163.167" xml:space="preserve">
<path fill="#A5D37C" d="M91.638,9.043v11.27H29.059c-6.221,0-11.271,5.06-11.271,11.28v85.13c0,0.05,0,0.1-0.01,0.15H6.518
	c-0.01-0.05-0.01-0.1-0.01-0.15v-85.13c0-12.44,10.12-22.55,22.551-22.55H91.638z"/>
<path fill="#A5D37C" d="M129.992,32.873h-96.75c-1.104,0-2,1.078-2,2.407v116.437c0,1.329,0.896,2.407,2,2.407h96.75
	c1.104,0,2-1.078,2-2.407V35.28C131.992,33.951,131.097,32.873,129.992,32.873z M119.742,141.655c0,1.087-0.678,1.968-1.514,1.968
	H45.006c-0.836,0-1.514-0.881-1.514-1.968V46.426c0-1.087,0.678-1.968,1.514-1.968h73.223c0.836,0,1.514,0.881,1.514,1.968V141.655z
	"/>
</svg>
