<svg xmlns="http://www.w3.org/2000/svg" width="60.614" height="40.383" viewBox="0 0 60.614 40.383"><defs><style>.a{fill:#004f8c;}</style></defs><g transform="translate(0 -85.334)"><path class="a" d="M0,214.09v15.687a8.179,8.179,0,0,0,8.179,8.179H52.435a8.179,8.179,0,0,0,8.179-8.179V214.09a1.423,1.423,0,0,0-1.422-1.423H1.422A1.423,1.423,0,0,0,0,214.09Zm15.134,9.957H11.341a2.489,2.489,0,0,1,0-4.979h3.793a2.489,2.489,0,0,1,0,4.979Z" transform="translate(0 -112.239)"/><path class="a" d="M60.614,94.027v-.514a8.179,8.179,0,0,0-8.179-8.179H8.179A8.179,8.179,0,0,0,0,93.513v.514A1.423,1.423,0,0,0,1.422,95.45H59.192a1.423,1.423,0,0,0,1.422-1.422Z" transform="translate(0 0)"/></g></svg>