<svg xmlns="http://www.w3.org/2000/svg" width="10.548" height="14.519" viewBox="0 0 10.548 14.519"><defs><style>.a{fill:#656565;}</style></defs><g transform="translate(-70.007)"><g transform="translate(70.007)"><path class="a" d="M80.082,1.456H77.489V.473A.473.473,0,0,0,77.015,0H73.547a.473.473,0,0,0-.473.473v.983H70.48a.473.473,0,0,0-.473.473V3.386a.473.473,0,0,0,.473.473h9.6a.473.473,0,0,0,.473-.473V1.93A.473.473,0,0,0,80.082,1.456Zm-3.54,0H74.021V.947h2.521Z" transform="translate(-70.007 0)"/></g><g transform="translate(70.664 4.806)"><g transform="translate(0)"><path class="a" d="M93.192,169.5l.393,9.259a.473.473,0,0,0,.473.453h7.5a.473.473,0,0,0,.473-.453l.393-9.259Zm3.186,7.787a.473.473,0,0,1-.947,0v-5.862a.473.473,0,0,1,.947,0Zm1.9,0a.473.473,0,0,1-.947,0v-5.862a.473.473,0,0,1,.947,0Zm1.9,0a.473.473,0,1,1-.947,0v-5.862a.473.473,0,0,1,.947,0Z" transform="translate(-93.192 -169.497)"/></g></g></g></svg>