<svg xmlns="http://www.w3.org/2000/svg" width="21.054" height="18.423" viewBox="0 0 21.054 18.423"><defs><style>.a{fill:#fff;}</style></defs><g transform="translate(0 -31.998)"><g transform="translate(3.948 33.314)"><g transform="translate(0 0)"><path class="a" d="M111.791,64h-5.264v2.632h3.948V78.477H98.632V73.254H96v6.539a1.315,1.315,0,0,0,1.316,1.316h14.475a1.316,1.316,0,0,0,1.316-1.316V65.318A1.316,1.316,0,0,0,111.791,64Z" transform="translate(-96 -64.002)"/></g></g><g transform="translate(0 31.998)"><g transform="translate(0 0)"><path class="a" d="M8.553,34.63H6.579V32.657a.658.658,0,0,0-1.053-.526L.263,36.078a.658.658,0,0,0,0,1.053l5.264,3.948a.658.658,0,0,0,1.053-.526V38.578H9.093a5.889,5.889,0,0,1,5.3,3.275l.155.309a.658.658,0,0,0,1.246-.295A7.245,7.245,0,0,0,8.553,34.63Z" transform="translate(0 -31.998)"/></g></g></g></svg>