<svg xmlns="http://www.w3.org/2000/svg" width="26.351" height="17.967" viewBox="0 0 26.351 17.967"><defs><style>.a{fill:#656565;}</style></defs><g transform="translate(0 -74.667)"><g transform="translate(0 74.667)"><g transform="translate(0 0)"><path class="a" d="M174.26,170.667a3.593,3.593,0,1,0,3.593,3.593A3.6,3.6,0,0,0,174.26,170.667Z" transform="translate(-161.085 -165.277)"/><path class="a" d="M13.176,74.667A14.166,14.166,0,0,0,0,83.65a14.154,14.154,0,0,0,26.351,0A14.16,14.16,0,0,0,13.176,74.667Zm0,14.972a5.989,5.989,0,1,1,5.989-5.989A5.991,5.991,0,0,1,13.176,89.639Z" transform="translate(0 -74.667)"/></g></g></g></svg>