<svg xmlns="http://www.w3.org/2000/svg" width="48.893" height="48" viewBox="0 0 48.893 48"><defs><style>.a{fill:#fff;}</style></defs><path class="a" d="M1333.419-2484.114a24.226,24.226,0,0,0-24.447,24,24.226,24.226,0,0,0,24.447,24,24.226,24.226,0,0,0,24.447-24A24.226,24.226,0,0,0,1333.419-2484.114Zm6.437,21.836-.209,2.232h-4.3v14.215h-5.791v-14.215h-2.9v-5.685h2.876v-2.571c0-2.326,1.126-5.959,6.092-5.959l4.473.017v4.871h-3.247a1.219,1.219,0,0,0-1.283,1.367v2.275h4.6Z" transform="translate(-1308.972 2484.114)"/></svg>