<svg xmlns="http://www.w3.org/2000/svg" width="59.392" height="58.249" viewBox="0 0 59.392 58.249"><defs><style>.a{fill:#004f8c;}</style></defs><g transform="translate(-1222.915 2192.065)"><g transform="translate(1222.915 -2143.549)"><path class="a" d="M1278.569-2152.475a.911.911,0,0,0-.692-.38l-49.852.141a1.032,1.032,0,0,0-.724.358l-4.113,5.374a1.568,1.568,0,0,0-.273.808v2.6a.453.453,0,0,0,.45.453h58.491a.453.453,0,0,0,.45-.453v-2.6a1.8,1.8,0,0,0-.243-.829Z" transform="translate(-1222.915 2152.855)"/></g><g transform="translate(1228.779 -2169.103)"><g transform="translate(38.695)"><path class="a" d="M1267.2-2170.807a.7.7,0,0,0,.7-.7v-1.305a.7.7,0,0,0-.7-.7h-7.576a.7.7,0,0,0-.7.7v1.305a.7.7,0,0,0,.7.7h.314v18h-.314a.7.7,0,0,0-.7.7v1.305a.7.7,0,0,0,.7.7h7.576a.7.7,0,0,0,.7-.7v-1.305a.7.7,0,0,0-.7-.7h-.314v-18Z" transform="translate(-1258.927 2173.507)"/></g><g transform="translate(25.796)"><path class="a" d="M1256.776-2173.507H1249.2a.7.7,0,0,0-.7.7v1.305a.7.7,0,0,0,.7.7h.314v18h-.314a.7.7,0,0,0-.7.7v1.305a.7.7,0,0,0,.7.7h7.576a.7.7,0,0,0,.7-.7v-1.305a.7.7,0,0,0-.7-.7h-.314v-18h.314a.7.7,0,0,0,.7-.7v-1.305A.7.7,0,0,0,1256.776-2173.507Z" transform="translate(-1248.502 2173.507)"/></g><g transform="translate(12.899)"><path class="a" d="M1246.352-2173.507h-7.577a.7.7,0,0,0-.7.7v1.305a.7.7,0,0,0,.7.7h.316v18h-.316a.7.7,0,0,0-.7.7v1.305a.7.7,0,0,0,.7.7h7.577a.7.7,0,0,0,.7-.7v-1.305a.7.7,0,0,0-.7-.7h-.316v-18h.316a.7.7,0,0,0,.7-.7v-1.305A.7.7,0,0,0,1246.352-2173.507Z" transform="translate(-1238.079 2173.507)"/></g><path class="a" d="M1235.927-2173.507h-7.576a.7.7,0,0,0-.7.7v1.305a.7.7,0,0,0,.7.7h.314v18h-.314a.7.7,0,0,0-.7.7v1.305a.7.7,0,0,0,.7.7h7.576a.7.7,0,0,0,.7-.7v-1.305a.7.7,0,0,0-.7-.7h-.314v-18h.314a.7.7,0,0,0,.7-.7v-1.305A.7.7,0,0,0,1235.927-2173.507Z" transform="translate(-1227.654 2173.507)"/></g><g transform="translate(1222.915 -2192.065)"><path class="a" d="M1222.915-2173.31a1.406,1.406,0,0,0,1.4,1.4H1280.9a1.406,1.406,0,0,0,1.4-1.4v-.307a2.724,2.724,0,0,0-1.209-2.115l-27.277-16.042a2.649,2.649,0,0,0-2.419,0l-27.277,16.042a2.721,2.721,0,0,0-1.21,2.115Z" transform="translate(-1222.915 2192.065)"/></g></g></svg>