<svg xmlns="http://www.w3.org/2000/svg" width="333.068" height="59.567" viewBox="0 0 333.068 59.567"><defs><style>.a{fill:#004f8c;}.b{fill:#a5d37c;}.c{fill:#003b87;}</style></defs><g transform="translate(-312.513 -35.862)"><g transform="translate(312.513 48.185)"><path class="a" d="M327.483,79.674a15.4,15.4,0,0,1-8.709-2.44,13.342,13.342,0,0,1-5.24-6.533,16.847,16.847,0,0,1-.741-8.924A20.075,20.075,0,0,1,332.6,44.839a15.621,15.621,0,0,1,8.255,2.1A12.807,12.807,0,0,1,346,52.782l-6.03,3.159q-2.248-4.691-7.99-4.691a12.242,12.242,0,0,0-8.3,3.062,13.018,13.018,0,0,0-4.33,7.945q-.862,4.833,1.53,7.9a8.384,8.384,0,0,0,7.034,3.062,11.275,11.275,0,0,0,9.713-4.881l5.407,3.492a19.613,19.613,0,0,1-6.818,5.743A18.818,18.818,0,0,1,327.483,79.674Z" transform="translate(-312.513 -44.795)"/><path class="a" d="M346.541,56.233a8.655,8.655,0,0,1,8.038-4.451l-1.2,7.089a9.062,9.062,0,0,0-3.279.216,6.952,6.952,0,0,0-3.09,1.849,7.1,7.1,0,0,0-1.97,3.793l-2.053,12.325h-6.17l4.213-25.272h6.172Z" transform="translate(-303.334 -42.174)"/><path class="a" d="M369.532,51.781h6.843l-12.92,24.6q-2.922,5.455-6.392,7.632a13.283,13.283,0,0,1-7.967,1.938l1-5.742a6.971,6.971,0,0,0,4.02-.934,9.044,9.044,0,0,0,2.774-3.52l.143-.263-5.545-23.714h6.349l3.353,16.045Z" transform="translate(-298.7 -42.174)"/><path class="a" d="M376.586,77.051q-7.321,0-9.713-5.885l5.55-2.776q.957,3.062,4.689,3.062,3.112,0,3.494-1.867.145-1-1.052-1.626a17.031,17.031,0,0,0-2.967-1.149,31.279,31.279,0,0,1-3.492-1.269,5.725,5.725,0,0,1-2.728-2.465,6.178,6.178,0,0,1-.574-4.258,7.636,7.636,0,0,1,3.421-5.192,11.2,11.2,0,0,1,6.293-1.842,10.8,10.8,0,0,1,5.455,1.34,8.129,8.129,0,0,1,3.445,3.732l-5.55,2.776a3.52,3.52,0,0,0-3.685-2.393q-2.775,0-3.206,2.057a1.554,1.554,0,0,0,.981,1.723,14.161,14.161,0,0,0,2.966,1.1,31.812,31.812,0,0,1,3.542,1.172,5.5,5.5,0,0,1,2.751,2.392,6.278,6.278,0,0,1,.526,4.379,7.432,7.432,0,0,1-3.374,5.239A12.394,12.394,0,0,1,376.586,77.051Z" transform="translate(-291.987 -42.172)"/><path class="a" d="M393.974,59.417l-1.755,11.1q-.335,1.868.813,2.251a12.655,12.655,0,0,0,4.163.191l-.956,5.6q-6.03.717-8.541-1.244t-1.649-6.8l1.755-11.1h-4.163l1.052-5.933h4.156l.851-4.327,6.5-1.868-1.183,6.2h5.455l-1.1,5.933Z" transform="translate(-285.656 -43.87)"/><path class="a" d="M417.578,51.781h6.172l-4.214,25.272h-6.17l.382-2.841a11.32,11.32,0,0,1-7.943,2.841q-5.408,0-8.038-3.972a12.01,12.01,0,0,1-1.627-9.235,15.054,15.054,0,0,1,4.618-8.589,12.542,12.542,0,0,1,8.876-3.469q5.077,0,7.381,3.879ZM407.7,71.168a7.617,7.617,0,0,0,4.928-1.741,7.882,7.882,0,0,0,2.776-4.6l.141-.8a5.362,5.362,0,0,0-1.243-4.629,5.711,5.711,0,0,0-4.353-1.716,7.544,7.544,0,0,0-4.976,1.794,7.838,7.838,0,0,0-2.681,4.9,5.849,5.849,0,0,0,1.006,4.906A5.336,5.336,0,0,0,407.7,71.168Z" transform="translate(-281.042 -42.174)"/><path class="a" d="M416.105,79.686l2.623-15.66L422.215,44.9l6.188-.088-3.539,19.417-2.589,15.462Z" transform="translate(-273.397 -44.807)"/></g><g transform="translate(479.894 48.229)"><path class="b" d="M451.9,44.839a9.654,9.654,0,0,1,7.848,3.326,9.914,9.914,0,0,1,2.01,8.255,12.256,12.256,0,0,1-4.355,7.872,13.987,13.987,0,0,1-9.284,3.039h-5.6l-1.945,12.345h-6.559l5.917-34.835Zm3.315,11.1a4.172,4.172,0,0,0-.669-3.59,4.455,4.455,0,0,0-3.637-1.339h-5.5L443.61,61.157H448.8a6.391,6.391,0,0,0,4.306-1.435A6.314,6.314,0,0,0,455.212,55.941Z" transform="translate(-434.015 -44.839)"/><path class="b" d="M475.365,51.781h6.17l-4.214,25.272h-6.17l.383-2.841a11.326,11.326,0,0,1-7.945,2.841q-5.408,0-8.038-3.972a12.016,12.016,0,0,1-1.627-9.235,15.053,15.053,0,0,1,4.618-8.589,12.542,12.542,0,0,1,8.876-3.469q5.077,0,7.381,3.879Zm-9.881,19.387a7.614,7.614,0,0,0,4.928-1.741,7.875,7.875,0,0,0,2.776-4.6l.142-.8a5.367,5.367,0,0,0-1.244-4.629,5.712,5.712,0,0,0-4.353-1.716,7.546,7.546,0,0,0-4.976,1.794,7.83,7.83,0,0,0-2.679,4.9,5.849,5.849,0,0,0,1,4.906A5.336,5.336,0,0,0,465.484,71.168Z" transform="translate(-426.602 -42.218)"/><path class="b" d="M493.708,51.781h6.843l-12.92,24.6q-2.922,5.455-6.392,7.632a13.288,13.288,0,0,1-7.968,1.938l1-5.742a6.971,6.971,0,0,0,4.02-.934,9.043,9.043,0,0,0,2.774-3.52l.143-.263-5.545-23.714h6.349l3.354,16.045Z" transform="translate(-419.193 -42.218)"/></g><g transform="translate(575.745 35.862)"><path class="a" d="M527.887,37.277a33.718,33.718,0,0,0-12.152,6.706c-.237.2-.445.417-.674.623a33.451,33.451,0,0,0-10.989,20.165,28.808,28.808,0,0,0,1.267,15.265,23.317,23.317,0,0,0,2.6,4.864,23.053,23.053,0,0,0,6.36,6.308,23.9,23.9,0,0,0,3.833,2.046l1.457-8.248.635-3.594A13.154,13.154,0,0,1,517.9,79.1q-4.094-5.238-2.619-13.5A22.29,22.29,0,0,1,525.83,49.716a20.383,20.383,0,0,1,6.462-2.453L534.28,36.01A34.231,34.231,0,0,0,527.887,37.277Z" transform="translate(-503.594 -35.806)"/><path class="a" d="M557.987,41.766c-3.287-3.936-7.953-5.9-13.959-5.9H534.25l2.13,10.977h5.884c3,0,5.154.791,6.472,2.374a6.088,6.088,0,0,1,1.258,2.718,10.2,10.2,0,0,1-.061,3.673,11.239,11.239,0,0,1-3.753,6.716,10.782,10.782,0,0,1-6.33,2.495l2.088,10.733a23.009,23.009,0,0,0,11.87-5.093,21.794,21.794,0,0,0,7.75-14Q562.926,47.691,557.987,41.766Z" transform="translate(-492.018 -35.862)"/><path class="c" d="M534.739,35.862l-.142.933-1.643,10.043h3.916Z" transform="translate(-492.507 -35.862)"/><path class="c" d="M540.084,56.878c-.427.041-.873.061-1.339.061h-3.186l-1.927,11h3.917a31.032,31.032,0,0,0,4.625-.324Z" transform="translate(-492.252 -27.926)"/><path class="b" d="M532.418,35.862a35.878,35.878,0,0,0-3.673.2l-1.988,11.259-.223,1.278-6.026,34.043L518.377,94.76l-.121.67h11.666l1.827-10.368,1.358-7.567.285-1.624,1.927-11,2.962-16.738.223-1.3L540.147,36.8l.142-.934Z" transform="translate(-498.057 -35.862)"/></g></g></svg>