<?xml version="1.0" encoding="utf-8"?>
<!-- Generator: Adobe Illustrator 15.0.0, SVG Export Plug-In . SVG Version: 6.00 Build 0)  -->
<!DOCTYPE svg PUBLIC "-//W3C//DTD SVG 1.1//EN" "http://www.w3.org/Graphics/SVG/1.1/DTD/svg11.dtd">
<svg version="1.1" id="Layer_1" xmlns="http://www.w3.org/2000/svg" xmlns:xlink="http://www.w3.org/1999/xlink" x="0px" y="0px"
	 width="28.176px" height="45px" viewBox="0 0 28.176 45" enable-background="new 0 0 28.176 45" xml:space="preserve">
<path fill="#FFFFFF" d="M19.724,36.63v-2.818H8.453v2.818h2.818v2.818H8.509c0.039,3.093,2.57,5.574,5.663,5.552
	c3.053,0.014,5.538-2.449,5.552-5.502c0-0.017,0-0.033,0-0.05h-2.817V36.63H19.724z M19.583,30.995
	c0-8.369,8.594-8.678,8.594-16.906C28.176,5.889,22.288,0,14.003,0c-8.284,0-14,5.833-14,14.089c0,8.4,8.426,8.537,8.426,16.906
	H19.583z"/>
</svg>
