<?xml version="1.0" encoding="utf-8"?>
<!-- Generator: Adobe Illustrator 15.0.0, SVG Export Plug-In . SVG Version: 6.00 Build 0)  -->
<!DOCTYPE svg PUBLIC "-//W3C//DTD SVG 1.1//EN" "http://www.w3.org/Graphics/SVG/1.1/DTD/svg11.dtd">
<svg version="1.1" id="Layer_1" xmlns="http://www.w3.org/2000/svg" xmlns:xlink="http://www.w3.org/1999/xlink" x="0px" y="0px"
	 width="36.223px" height="36.223px" viewBox="0 0 36.223 36.223" enable-background="new 0 0 36.223 36.223" xml:space="preserve">
<path fill="#FFFFFF" d="M27.167,9.055V6.792H9.056v2.264H27.167z M27.167,13.583V11.32H9.056v2.263H27.167z M27.167,18.111v-2.264
	H9.056v2.264H27.167z M27.167,22.639v-2.265H9.056v2.265H27.167z M13.584,27.167h9.056v2.264h-9.056V27.167z M0,24.903l2.2,11.319
	h31.762l2.265-11.319H0z M31.694,22.639h2.2L31.517,0.001H4.51L2.336,22.639H4.51c0-4.528,2.31-18.111,2.31-18.111h22.638
	L31.694,22.639z"/>
</svg>
