<svg xmlns="http://www.w3.org/2000/svg" width="22.402" height="22.401" viewBox="0 0 22.402 22.401"><defs><style>.a{fill:#004f8c;}</style></defs><g transform="translate(0 -0.016)"><g transform="translate(0 3.789)"><path class="a" d="M18.54,96.714,8.232,86.453a.466.466,0,0,0-.658,0l-1.84,1.84a.467.467,0,0,0,0,.659l.6.6-2.9,2.9a5.119,5.119,0,0,0-.326,6.855L.136,102.284a.467.467,0,0,0,0,.659L2,104.809a.468.468,0,0,0,.66,0l2.971-2.971a5.083,5.083,0,0,0,6.855-.325l2.9-2.9.6.6a.467.467,0,0,0,.655,0l1.89-1.84a.466.466,0,0,0,0-.664Z" transform="translate(0 -86.317)"/></g><g transform="translate(9.965 0.016)"><g transform="translate(0 0)"><path class="a" d="M234.246.537a1.783,1.783,0,0,0-2.519,0l-3.8,3.8,2.53,2.519,3.789-3.79a1.781,1.781,0,0,0,0-2.525Z" transform="translate(-227.931 -0.016)"/></g></g><g transform="translate(15.572 5.612)"><path class="a" d="M362.51,128.537a1.783,1.783,0,0,0-2.519,0l-3.783,3.783,2.531,2.519,3.776-3.776a1.781,1.781,0,0,0-.006-2.526Z" transform="translate(-356.208 -128.016)"/></g></g></svg>