<svg xmlns="http://www.w3.org/2000/svg" width="16.731" height="16.731" viewBox="0 0 16.731 16.731"><defs><style>.a{fill:#a5d37c;}</style></defs><path class="a" d="M8.366,0a8.366,8.366,0,1,0,8.366,8.366A8.375,8.375,0,0,0,8.366,0Zm0,15.435a7.07,7.07,0,1,1,7.07-7.07A7.078,7.078,0,0,1,8.366,15.435Z"/><g transform="translate(4.478 4.419)"><path class="a" d="M144.15,138.478h-2.592v-2.592a.648.648,0,0,0-1.3,0v2.592H137.67a.648.648,0,1,0,0,1.3h2.592v2.592a.648.648,0,0,0,1.3,0v-2.592h2.592a.648.648,0,1,0,0-1.3Z" transform="translate(-137.022 -135.238)"/></g></svg>