<svg xmlns="http://www.w3.org/2000/svg" width="39.219" height="48" viewBox="0 0 39.219 48"><defs><style>.a{fill:#fff;}</style></defs><g transform="translate(-2362.607 2621.653)"><path class="a" d="M2372.412-2600.569v-7.585a9.8,9.8,0,0,1,9.8-9.8,9.8,9.8,0,0,1,9.806,9.8v7.585h3.635v-7.644a13.441,13.441,0,0,0-13.439-13.44,13.438,13.438,0,0,0-13.437,13.44v7.644Z"/><path class="a" d="M2396.222-2603.317h-28.014a5.517,5.517,0,0,0-5.6,5.428v18.811a5.514,5.514,0,0,0,5.6,5.425h28.014a5.515,5.515,0,0,0,5.6-5.425v-18.811A5.518,5.518,0,0,0,2396.222-2603.317Zm-12.339,15.518v5.018h-3.336v-5.018a3.406,3.406,0,0,1-1.743-2.977,3.412,3.412,0,0,1,3.411-3.412,3.412,3.412,0,0,1,3.411,3.412A3.408,3.408,0,0,1,2383.883-2587.8Z"/></g></svg>