<svg xmlns="http://www.w3.org/2000/svg" width="10.691" height="19.491" viewBox="0 0 10.691 19.491"><defs><style>.a{fill:#004f8c;}</style></defs><g transform="translate(-113.692)"><g transform="translate(113.692)"><path class="a" d="M122.347,0h-6.585a2.069,2.069,0,0,0-2.071,2.032v15.43a2.05,2.05,0,0,0,2.051,2.03l6.6-.007a2.037,2.037,0,0,0,2.035-2.03l.01-15.423A2.032,2.032,0,0,0,122.347,0ZM118.1,1.218h1.91a.3.3,0,1,1,0,.609H118.1a.3.3,0,1,1,0-.609Zm-1.148.1a.315.315,0,0,1,.431,0,.305.305,0,0,1-.215.521.312.312,0,0,1-.216-.09.307.307,0,0,1,0-.431ZM119,18.888a.911.911,0,1,1,.911-.911A.912.912,0,0,1,119,18.888Zm4.44-2.442h-8.679V2.893h8.679Z" transform="translate(-113.692)"/></g></g></svg>