<?xml version="1.0" encoding="utf-8"?>
<!-- Generator: Adobe Illustrator 15.0.0, SVG Export Plug-In . SVG Version: 6.00 Build 0)  -->
<!DOCTYPE svg PUBLIC "-//W3C//DTD SVG 1.1//EN" "http://www.w3.org/Graphics/SVG/1.1/DTD/svg11.dtd">
<svg version="1.1" id="Layer_1" xmlns="http://www.w3.org/2000/svg" xmlns:xlink="http://www.w3.org/1999/xlink" x="0px" y="0px"
	 width="10.691px" height="19.492px" viewBox="0 0 10.691 19.492" enable-background="new 0 0 10.691 19.492" xml:space="preserve">
<g transform="translate(-113.692)">
	<g transform="translate(113.692)">
		<path fill="#FFFFFF" d="M8.655,0H2.07C0.941-0.001,0.019,0.903-0.001,2.032v15.43c0.011,1.125,0.927,2.03,2.051,2.029l6.601-0.007
			c1.121-0.001,2.031-0.908,2.035-2.03l0.01-15.422C10.695,0.91,9.785,0,8.663,0C8.66,0,8.658,0,8.655,0z M4.408,1.218h1.91
			c0.168,0,0.305,0.137,0.305,0.305S6.486,1.827,6.318,1.827h-1.91c-0.168,0-0.305-0.137-0.305-0.305S4.24,1.218,4.408,1.218z
			 M3.26,1.318c0.122-0.114,0.311-0.114,0.432,0C3.81,1.437,3.81,1.63,3.692,1.75C3.635,1.807,3.557,1.839,3.476,1.839
			C3.395,1.838,3.317,1.806,3.26,1.749C3.142,1.629,3.142,1.438,3.26,1.318z M5.308,18.888c-0.504,0-0.911-0.408-0.911-0.911
			s0.407-0.911,0.911-0.911c0.503,0,0.911,0.408,0.911,0.911C6.219,18.48,5.811,18.888,5.308,18.888z M9.748,16.446H1.069V2.893
			h8.679V16.446z"/>
	</g>
</g>
</svg>
