<svg xmlns="http://www.w3.org/2000/svg" width="138" height="138" viewBox="0 0 138 138"><defs><style>.a{fill:#a5d37c;}</style></defs><g transform="translate(32.766 17.338)"><path class="a" d="M222.855,65.855a5.2,5.2,0,0,0-7.354-.009l-62.395,62.23-22.512-24.45a5.2,5.2,0,0,0-7.653,7.046l26.178,28.43a5.2,5.2,0,0,0,3.715,1.676c.038,0,.075,0,.111,0a5.206,5.206,0,0,0,3.672-1.517l66.226-66.053A5.2,5.2,0,0,0,222.855,65.855Z" transform="translate(-121.568 -64.327)"/></g><path class="a" d="M132.8,63.8a5.2,5.2,0,0,0-5.2,5.2A58.6,58.6,0,1,1,69,10.4,5.2,5.2,0,1,0,69,0a69,69,0,1,0,69,69A5.2,5.2,0,0,0,132.8,63.8Z"/></svg>