<svg xmlns="http://www.w3.org/2000/svg" width="48.894" height="48" viewBox="0 0 48.894 48"><defs><style>.a{fill:#fff;}</style></defs><path class="a" d="M1665.932-2484.114a24.226,24.226,0,0,0-24.447,24,24.226,24.226,0,0,0,24.447,24,24.226,24.226,0,0,0,24.447-24A24.226,24.226,0,0,0,1665.932-2484.114Zm11.516,19.652c.013.244.017.493.017.741a15.524,15.524,0,0,1-.406,3.466,16.465,16.465,0,0,1-16.5,12.869,17.27,17.27,0,0,1-9.108-2.579,12.965,12.965,0,0,0,1.418.082,12.174,12.174,0,0,0,7.38-2.459,5.933,5.933,0,0,1-5.551-3.989,6.072,6.072,0,0,0,1.117.107,6.254,6.254,0,0,0,1.567-.2,5.927,5.927,0,0,1-4.36-3.552,5.606,5.606,0,0,1-.406-2.082v-.073a6.055,6.055,0,0,0,2.693.719,5.7,5.7,0,0,1-2.645-4.781,5.577,5.577,0,0,1,.807-2.883,17.072,17.072,0,0,0,12.241,6,5.858,5.858,0,0,1-.148-1.307,5.845,5.845,0,0,1,5.939-5.745,6.019,6.019,0,0,1,4.333,1.816,12.124,12.124,0,0,0,3.775-1.4,5.8,5.8,0,0,1-2.614,3.178,12.2,12.2,0,0,0,3.413-.9A11.806,11.806,0,0,1,1677.448-2464.462Z" transform="translate(-1641.485 2484.114)"/></svg>