<svg xmlns="http://www.w3.org/2000/svg" width="156.633" height="180" viewBox="0 0 156.633 180"><defs><style>.a{fill:#96999c;}.b{fill:#537a61;}.c{fill:#c7c9cb;}.d{fill:#a5d37c;}.e{fill:#eff8fa;}.f{fill:#edeeef;}.g,.l{fill:#868686;}.g{opacity:0.21;}.h{fill:#6b6b6b;opacity:0.27;}.i{fill:#003b87;}.j{opacity:0.48;}.k{fill:#004f8c;}.l{opacity:0.58;}</style></defs><g transform="translate(-734.648 2321.634)"><g transform="translate(734.648 -2321.634)"><g transform="translate(0 12.639)"><path class="a" d="M836.868-2280.389l-.369,1.237-1.136,3.827-1.121,3.784-1.418,4.775-6.411,21.6-1.679,5.664-.065.225-.325,1.071-.341,1.15-.087.3-4.594,15.475-.738,2.482-.578,1.96-.376,1.274v.008l-2.974,10-1.222,4.117-.174.585-.383,1.3-.4,1.353-.746,2.5-1.273,4.291-.8,2.683-2.85,9.608-12.892,43.444h-57.1a2.167,2.167,0,0,1-2.17-2.171v-77.722l.406-1.36,1.649-5.571,4.232-14.252.34-1.143.087-.3,2.062-6.96,5.968-20.119,11.214-37.759,24.417,7.25,5.781,1.722,19.621,5.823,2.836.847,7.106,2.1,13.188,3.921Z" transform="translate(-734.648 2303.041)"/><path class="b" d="M760.141-2076.312a10.472,10.472,0,0,1-7.184-12.967,10.5,10.5,0,0,1,13.1-6.945,10.485,10.485,0,0,1,7.189,12.97A10.476,10.476,0,0,1,760.141-2076.312Z" transform="translate(-740.375 2236.953)"/><path class="b" d="M800.412-2211.956a10.482,10.482,0,0,1-7.19-12.967,10.479,10.479,0,0,1,13.1-6.942,10.486,10.486,0,0,1,7.19,12.967A10.482,10.482,0,0,1,800.412-2211.956Z" transform="translate(-753.27 2280.392)"/><path class="b" d="M800.159-2162.169a20.417,20.417,0,0,0-.456-3.125c-.029-.145-.065-.29-.1-.435a18.9,18.9,0,0,0-.55-1.9v-.007a22.566,22.566,0,0,0-1.686-3.806l-.007-.007a22.216,22.216,0,0,0-6.678-7.329,19.762,19.762,0,0,0-1.75-1.1,21.9,21.9,0,0,0-4.6-1.954,22.541,22.541,0,0,0-2.706-.622l-.413-.065a21.136,21.136,0,0,0-2.771-.224.48.48,0,0,0-.145,0,21.463,21.463,0,0,0-6.1.782,17.255,17.255,0,0,0-1.794.571,20.86,20.86,0,0,0-2.843,1.274,22.066,22.066,0,0,0-8.956,8.819,22.257,22.257,0,0,0-1.86,4.45,22.191,22.191,0,0,0,14.947,27.6,22.108,22.108,0,0,0,13.457-.26,22.177,22.177,0,0,0,14.122-14.623.408.408,0,0,0,.029-.086,21.771,21.771,0,0,0,.89-5.2A20.654,20.654,0,0,0,800.159-2162.169Zm-15.757,11.2a7.9,7.9,0,0,1-3.754.057l.7-2.974.419-1.777a4.869,4.869,0,0,0,3.531-.608,3.116,3.116,0,0,0,1.266-1.839,3.449,3.449,0,0,0-.413-2.922,2.462,2.462,0,0,0-1.461-.955c-1.02-.3-2.178.022-3.545.947-.963.775-2.409,1.933-4.37,3.473a16.69,16.69,0,0,1-3.921,2.439c-.087.036-.159.065-.239.093a6.016,6.016,0,0,1-3.726.088,5.668,5.668,0,0,1-4.131-4.465,6.345,6.345,0,0,1-.137-.91,8.022,8.022,0,0,1,.079-2.142l-2.5-.746,1.056-3.56,2.481.717a9.617,9.617,0,0,1,1.549-2.5,6.225,6.225,0,0,1,2.6-1.795,5.808,5.808,0,0,1,3.118-.26l-.767,4.9a3.84,3.84,0,0,0-2.655.462,3,3,0,0,0-1.151,1.787,2.537,2.537,0,0,0,.261,2.3,2.908,2.908,0,0,0,1.613,1.107,4.9,4.9,0,0,0,3.943-.919,16.679,16.679,0,0,0,2.185-1.736c1.064-.948,1.787-1.562,2.156-1.837a15.682,15.682,0,0,1,1.642-1.1,10.514,10.514,0,0,1,1.874-.918,11.8,11.8,0,0,1,1.36-.428,6.087,6.087,0,0,1,2.069-.122,2.849,2.849,0,0,1,.455.1,6.215,6.215,0,0,1,1.773.773,5.992,5.992,0,0,1,2.047,2.264,5.69,5.69,0,0,1,.521,1.39v.007a8.479,8.479,0,0,1,.2,2.489c-.036.4-.1.84-.173,1.316l2.474.71-.123.4-.933,3.176-2.561-.766a8.03,8.03,0,0,1-1.715,2.444A6.905,6.905,0,0,1,784.4-2150.969Z" transform="translate(-741.427 2264.519)"/></g><path class="c" d="M863.514-2273.646l-13.449,17.791-3.582,4.739-9.268,12.263-1.555,2.062-9.912,13.109-1.548,2.055-10.765,14.238-.434.579-1.584,2.091-1.238,1.642-.311.413L807.857-2200l-.014.021-.058.073-.839,1.106-3.2,4.232-2.908,3.849-11.214,14.831-19.931,26.378-.695.92h-.007l-5.259,6.958H736.818a2.167,2.167,0,0,1-2.17-2.171v-91.3l1.281-1.692.029-.029,4.449-5.881.868-1.143.225-.3,4.4-5.817.861-1.143,4.2-5.564,14.18-18.759,4.24-5.614,6.924-9.159,4.1-5.427,4.616-6.106,15.041-19.888,28.91,21.87,14.983,11.323,8.956,6.779,8.61,6.511Z" transform="translate(-734.648 2321.634)"/><path class="b" d="M822.708-2225.254a10.481,10.481,0,0,1-2.181-14.666,10.48,10.48,0,0,1,14.7-1.9,10.488,10.488,0,0,1,2.181,14.667A10.481,10.481,0,0,1,822.708-2225.254Z" transform="translate(-761.487 2296.771)"/><path class="b" d="M785.4-2189.146a22.5,22.5,0,0,0-2.706-.622l-.413-.065c-.391.557-.774,1.129-1.143,1.708a.1.1,0,0,1-.022.029c-.007.014-.014.022-.014.037-.109.166-.224.354-.333.535s-.231.369-.332.55-.217.362-.318.55-.21.376-.311.557c-.051.095-.1.181-.145.275.029-.014.065-.022.094-.037.1-.035.2-.072.3-.108.188-.073.376-.145.578-.224,1.31-.506,2.192-.824,2.641-.948a.026.026,0,0,1,.022-.008,13.851,13.851,0,0,1,4-.666,13.7,13.7,0,0,1,1.425.08,6.908,6.908,0,0,1,1.281.311A21.909,21.909,0,0,0,785.4-2189.146Zm-12.61,1.686c.014.079.029.152.051.231a2.841,2.841,0,0,0,1.122,1.607,3.351,3.351,0,0,0,1.41.6Zm12.61-1.686a22.5,22.5,0,0,0-2.706-.622l-.413-.065c-.391.557-.774,1.129-1.143,1.708a.1.1,0,0,1-.022.029c-.007.014-.014.022-.014.037-.109.166-.224.354-.333.535s-.231.369-.332.55-.217.362-.318.55-.21.376-.311.557c-.051.095-.1.181-.145.275.029-.014.065-.022.094-.037.1-.035.2-.072.3-.108.188-.073.376-.145.578-.224,1.31-.506,2.192-.824,2.641-.948a.026.026,0,0,1,.022-.008,13.851,13.851,0,0,1,4-.666,13.7,13.7,0,0,1,1.425.08,6.908,6.908,0,0,1,1.281.311A21.909,21.909,0,0,0,785.4-2189.146Zm-12.61,1.686c.014.079.029.152.051.231a2.841,2.841,0,0,0,1.122,1.607,3.351,3.351,0,0,0,1.41.6Zm12.61-1.686a22.5,22.5,0,0,0-2.706-.622l-.413-.065c-.391.557-.774,1.129-1.143,1.708a.1.1,0,0,1-.022.029c-.007.014-.014.022-.014.037-.109.166-.224.354-.333.535s-.231.369-.332.55-.217.362-.318.55-.21.376-.311.557c-.051.095-.1.181-.145.275.029-.014.065-.022.094-.037.1-.035.2-.072.3-.108.188-.073.376-.145.578-.224,1.31-.506,2.192-.824,2.641-.948a.026.026,0,0,1,.022-.008,13.851,13.851,0,0,1,4-.666,13.7,13.7,0,0,1,1.425.08,6.908,6.908,0,0,1,1.281.311A21.909,21.909,0,0,0,785.4-2189.146Zm-12.61,1.686c.014.079.029.152.051.231a2.841,2.841,0,0,0,1.122,1.607,3.351,3.351,0,0,0,1.41.6Zm27.622-7.322a21.065,21.065,0,0,0-1.722-2.481,22.251,22.251,0,0,0-3.748-3.676c-.065-.058-.137-.109-.2-.159-.094-.073-.188-.145-.289-.21a.081.081,0,0,0-.037-.029,20.633,20.633,0,0,0-2.294-1.461,3.24,3.24,0,0,0-.354-.2c0-.007-.007-.007-.007-.007a22.839,22.839,0,0,0-2.763-1.237,22.5,22.5,0,0,0-2.619-.774h-.007a21.844,21.844,0,0,0-3.733-.535,20.408,20.408,0,0,0-2.51,0c-.362.021-.709.05-1.071.087h-.007a22.153,22.153,0,0,0-15.388,8.71,22.115,22.115,0,0,0-3.985,18.137,22.109,22.109,0,0,0,6.019,10.976,22.007,22.007,0,0,0,2.272,1.974,21.884,21.884,0,0,0,5.962,3.221,22.215,22.215,0,0,0,8.494,1.242,22.245,22.245,0,0,0,11.351-3.768c.542-.369,1.078-.761,1.591-1.18a22.243,22.243,0,0,0,3.7-3.841,22.88,22.88,0,0,0,1.707-2.62c.29-.514.55-1.034.789-1.563.115-.245.224-.491.326-.738.224-.549.426-1.106.608-1.663A22.246,22.246,0,0,0,800.411-2194.781Zm-8.305,21.906-2.134-1.613a7.533,7.533,0,0,1-1.143.94,6.2,6.2,0,0,1-.789.485c-.174.1-.355.181-.528.26a6.92,6.92,0,0,1-3.537.629,7.408,7.408,0,0,1-2.678-.781,9.149,9.149,0,0,1-.853-.485l2.72-4.059c.13.072.26.137.384.2a4.565,4.565,0,0,0,3.132.477,3.12,3.12,0,0,0,1.831-1.281,3.436,3.436,0,0,0,.673-2.719v-.008a1.09,1.09,0,0,0-.029-.152,2.553,2.553,0,0,0-1.035-1.4,3.637,3.637,0,0,0-2.807-.52,8.082,8.082,0,0,0-.846.159c-1.114.369-2.771.912-4.978,1.613-.108.036-.224.073-.34.108a16.081,16.081,0,0,1-4.782.912,6.031,6.031,0,0,1-3.516-1.23,5.657,5.657,0,0,1-2.3-5.628c.022-.152.051-.3.08-.456a8,8,0,0,1,.941-2.424l-2.083-1.577.781-1.042,1.454-1.924,2.07,1.548a9.643,9.643,0,0,1,2.329-1.794,6.163,6.163,0,0,1,3.06-.767,5.725,5.725,0,0,1,2.134.419,5.2,5.2,0,0,1,.876.427l-.716,1.274-1.714,3.045a3.8,3.8,0,0,0-2.648-.491,2.938,2.938,0,0,0-1.714,1.266,1.628,1.628,0,0,0-.13.2,2.493,2.493,0,0,0-.477,1.808v.008c.014.079.029.152.051.231a2.841,2.841,0,0,0,1.122,1.607,3.351,3.351,0,0,0,1.41.6,4.256,4.256,0,0,0,1.078.086,1.728,1.728,0,0,0,.332-.014,8.146,8.146,0,0,0,1.194-.152,13.317,13.317,0,0,0,1.686-.492c.029-.014.065-.022.094-.037.1-.035.2-.072.3-.108.188-.073.376-.145.578-.224,1.31-.506,2.192-.824,2.641-.948a.026.026,0,0,1,.022-.008,13.851,13.851,0,0,1,4-.666,13.7,13.7,0,0,1,1.425.08,6.908,6.908,0,0,1,1.281.311,3.675,3.675,0,0,1,1.092.55,4.737,4.737,0,0,1,.658.549,5.838,5.838,0,0,1,1.845,3.646,5.132,5.132,0,0,1,.037,1.107,7.731,7.731,0,0,1-.637,2.562c-.022.072-.058.145-.086.216-.174.363-.391.753-.629,1.173l2.076,1.534Zm-19.317-14.585c.014.079.029.152.051.231a2.841,2.841,0,0,0,1.122,1.607,3.351,3.351,0,0,0,1.41.6Zm12.61-1.686a22.5,22.5,0,0,0-2.706-.622l-.413-.065c-.391.557-.774,1.129-1.143,1.708a.1.1,0,0,1-.022.029c-.007.014-.014.022-.014.037-.109.166-.224.354-.333.535s-.231.369-.332.55-.217.362-.318.55-.21.376-.311.557c-.051.095-.1.181-.145.275.029-.014.065-.022.094-.037.1-.035.2-.072.3-.108.188-.073.376-.145.578-.224,1.31-.506,2.192-.824,2.641-.948a.026.026,0,0,1,.022-.008,13.851,13.851,0,0,1,4-.666,13.7,13.7,0,0,1,1.425.08,6.908,6.908,0,0,1,1.281.311A21.909,21.909,0,0,0,785.4-2189.146Zm-12.61,1.686c.014.079.029.152.051.231a2.841,2.841,0,0,0,1.122,1.607,3.351,3.351,0,0,0,1.41.6Zm12.61-1.686a22.5,22.5,0,0,0-2.706-.622l-.413-.065c-.391.557-.774,1.129-1.143,1.708a.1.1,0,0,1-.022.029c-.007.014-.014.022-.014.037-.109.166-.224.354-.333.535s-.231.369-.332.55-.217.362-.318.55-.21.376-.311.557c-.051.095-.1.181-.145.275.029-.014.065-.022.094-.037.1-.035.2-.072.3-.108.188-.073.376-.145.578-.224,1.31-.506,2.192-.824,2.641-.948a.026.026,0,0,1,.022-.008,13.851,13.851,0,0,1,4-.666,13.7,13.7,0,0,1,1.425.08,6.908,6.908,0,0,1,1.281.311A21.909,21.909,0,0,0,785.4-2189.146Zm-12.61,1.686c.014.079.029.152.051.231a2.841,2.841,0,0,0,1.122,1.607,3.351,3.351,0,0,0,1.41.6Zm12.61-1.686a22.5,22.5,0,0,0-2.706-.622l-.413-.065c-.391.557-.774,1.129-1.143,1.708a.1.1,0,0,1-.022.029c-.007.014-.014.022-.014.037-.109.166-.224.354-.333.535s-.231.369-.332.55-.217.362-.318.55-.21.376-.311.557c-.051.095-.1.181-.145.275.029-.014.065-.022.094-.037.1-.035.2-.072.3-.108.188-.073.376-.145.578-.224,1.31-.506,2.192-.824,2.641-.948a.026.026,0,0,1,.022-.008,13.851,13.851,0,0,1,4-.666,13.7,13.7,0,0,1,1.425.08,6.908,6.908,0,0,1,1.281.311A21.909,21.909,0,0,0,785.4-2189.146Zm-12.61,1.686c.014.079.029.152.051.231a2.841,2.841,0,0,0,1.122,1.607,3.351,3.351,0,0,0,1.41.6Zm12.61-1.686a22.5,22.5,0,0,0-2.706-.622l-.413-.065c-.391.557-.774,1.129-1.143,1.708a.1.1,0,0,1-.022.029c-.007.014-.014.022-.014.037-.109.166-.224.354-.333.535s-.231.369-.332.55-.217.362-.318.55-.21.376-.311.557c-.051.095-.1.181-.145.275.029-.014.065-.022.094-.037.1-.035.2-.072.3-.108.188-.073.376-.145.578-.224,1.31-.506,2.192-.824,2.641-.948a.026.026,0,0,1,.022-.008,13.851,13.851,0,0,1,4-.666,13.7,13.7,0,0,1,1.425.08,6.908,6.908,0,0,1,1.281.311A21.909,21.909,0,0,0,785.4-2189.146Z" transform="translate(-742.497 2284.47)"/><g transform="translate(25.674 13.677)"><path class="d" d="M853.331-2300.558l46.16,43.59a3.381,3.381,0,0,1,0,4.9l-74.8,73.988a3.667,3.667,0,0,1-5.072.114l-46.16-43.592a3.381,3.381,0,0,1,.006-4.9l74.8-73.988A3.673,3.673,0,0,1,853.331-2300.558Z" transform="translate(-772.418 2301.514)"/><path class="e" d="M896.811-2271.277a6.764,6.764,0,0,1,.012,9.808l-6.29,6.234a7.35,7.35,0,0,1-10.147.257h0a6.776,6.776,0,0,1-.008-9.809l6.289-6.241a7.35,7.35,0,0,1,10.144-.248Z" transform="translate(-806.319 2292.443)"/><path class="f" d="M916.443-2251.867a6.763,6.763,0,0,1,.013,9.8l-6.295,6.24a7.342,7.342,0,0,1-10.143.251h0a6.767,6.767,0,0,1-.008-9.805l6.284-6.238a7.356,7.356,0,0,1,10.148-.251Z" transform="translate(-812.606 2286.226)"/></g><path class="g" d="M789.158-2293.525l-4.616,6.106-4.1,5.426-6.924,9.159-4.24,5.614-14.18,18.76-4.2,5.563h-3.335l11.149-17.718,18.275-29.048,3.965-6.3Z" transform="translate(-738.782 2313.413)"/><path class="h" d="M848.627-2291.789l-5.144,5.087-3.465,3.429-1.867,1.852-3.943,3.893-6.019,5.961h-.007l-13.125,12.987-.014.007a9.9,9.9,0,0,0-1.382,1.368l-5.172,5.114-9.043,8.95h-3.429l8.428-9.8,17.588-20.446,5.31-6.178,5.114-5.947.456.138-.347-.261,4.855-5.65,4.681-5.44Z" transform="translate(-754.3 2313.658)"/></g><g transform="translate(734.648 -2251.117)"><path class="i" d="M884.169-2215.726v105.142a2.172,2.172,0,0,1-2.17,2.171H736.818a2.167,2.167,0,0,1-2.17-2.171v-105.142a2.167,2.167,0,0,1,2.17-2.17H882A2.172,2.172,0,0,1,884.169-2215.726Z" transform="translate(-734.648 2217.896)"/><g class="j" transform="translate(0 6.96)"><path class="k" d="M742.758-2207.657h-5.831a.725.725,0,0,0-.723.723.726.726,0,0,0,.723.724h5.831a.722.722,0,0,0,.724-.724A.721.721,0,0,0,742.758-2207.657Zm11.67,0h-5.853a.72.72,0,0,0-.7.723.719.719,0,0,0,.022.174.716.716,0,0,0,.7.55h5.832a.726.726,0,0,0,.723-.724A.725.725,0,0,0,754.428-2207.657Zm11.669,0h-5.838a.725.725,0,0,0-.723.723.726.726,0,0,0,.723.724H766.1a.727.727,0,0,0,.724-.724A.726.726,0,0,0,766.1-2207.657Zm11.67,0h-5.839a.725.725,0,0,0-.723.723.706.706,0,0,0,.26.55.709.709,0,0,0,.463.174h5.839a.18.18,0,0,0,.065-.008.717.717,0,0,0,.658-.716A.725.725,0,0,0,777.768-2207.657Zm11.662,0H783.6a.742.742,0,0,0-.492.188l-.044.044a.743.743,0,0,0-.188.492.722.722,0,0,0,.557.7.629.629,0,0,0,.167.022h5.831a.723.723,0,0,0,.695-.521c.007-.015.007-.036.014-.058a.951.951,0,0,0,.014-.145A.725.725,0,0,0,789.43-2207.657Zm11.669,0h-5.831a.72.72,0,0,0-.723.723.723.723,0,0,0,.709.724H801.1a.67.67,0,0,0,.319-.08.718.718,0,0,0,.405-.644A.726.726,0,0,0,801.1-2207.657Zm11.67,0h-5.839a.725.725,0,0,0-.724.723.726.726,0,0,0,.724.724h5.839a.726.726,0,0,0,.723-.724A.725.725,0,0,0,812.77-2207.657Zm11.669,0H818.6a.8.8,0,0,0-.138.014.728.728,0,0,0-.586.709.757.757,0,0,0,.217.521.741.741,0,0,0,.506.2h5.838a.831.831,0,0,0,.268-.052.726.726,0,0,0,.455-.672A.725.725,0,0,0,824.439-2207.657Zm11.663,0H830.27a.718.718,0,0,0-.716.658.2.2,0,0,0-.007.065.727.727,0,0,0,.724.724H836.1a.721.721,0,0,0,.723-.724A.72.72,0,0,0,836.1-2207.657Zm11.669,0h-5.832a.721.721,0,0,0-.724.723.722.722,0,0,0,.724.724h5.832a.726.726,0,0,0,.723-.724A.725.725,0,0,0,847.771-2207.657Zm11.93.05a.616.616,0,0,0-.26-.05H853.6a.725.725,0,0,0-.723.723.726.726,0,0,0,.723.724h5.839a.726.726,0,0,0,.723-.724A.726.726,0,0,0,859.7-2207.607Zm11.41-.05h-5.839a.725.725,0,0,0-.723.723.726.726,0,0,0,.723.724h5.839a.725.725,0,0,0,.723-.724A.725.725,0,0,0,871.111-2207.657Zm4.854,1.852a.738.738,0,0,0-.723.738v5.831a.725.725,0,0,0,.723.723.721.721,0,0,0,.723-.723v-5.853A.711.711,0,0,0,875.965-2205.805Zm0,11.685a.721.721,0,0,0-.723.723v5.832a.726.726,0,0,0,.723.723.721.721,0,0,0,.723-.723v-5.832A.717.717,0,0,0,875.965-2194.121Zm0,11.662a.726.726,0,0,0-.723.724v5.838a.726.726,0,0,0,.723.723.721.721,0,0,0,.723-.723v-5.838A.721.721,0,0,0,875.965-2182.459Zm0,11.669a.726.726,0,0,0-.723.724v5.839a.725.725,0,0,0,.723.723.721.721,0,0,0,.723-.723v-5.839A.721.721,0,0,0,875.965-2170.79Zm0,11.67a.726.726,0,0,0-.723.724v5.831a.725.725,0,0,0,.723.723.721.721,0,0,0,.723-.723v-5.831A.721.721,0,0,0,875.965-2159.119Zm0,11.669a.721.721,0,0,0-.723.724v5.832a.725.725,0,0,0,.723.723.721.721,0,0,0,.723-.723v-5.832A.717.717,0,0,0,875.965-2147.451Zm0,11.664a.725.725,0,0,0-.723.723v5.838a.725.725,0,0,0,.723.723.721.721,0,0,0,.723-.723v-5.838A.721.721,0,0,0,875.965-2135.787Zm0,11.669a.726.726,0,0,0-.723.723v5.832a.72.72,0,0,0,.723.723.716.716,0,0,0,.723-.723v-5.832A.722.722,0,0,0,875.965-2124.118Zm-141.317,11v.594a.682.682,0,0,0,.065-.3A.688.688,0,0,0,734.648-2113.113Zm11.012-.426h-5.832a.725.725,0,0,0-.723.724.726.726,0,0,0,.723.723h5.832a.726.726,0,0,0,.723-.723A.725.725,0,0,0,745.66-2113.539Zm11.669,0H751.5a.674.674,0,0,0-.34.086.708.708,0,0,0-.383.638.721.721,0,0,0,.723.723h5.832a.726.726,0,0,0,.723-.723A.725.725,0,0,0,757.33-2113.539Zm12.364.527a.722.722,0,0,0-.695-.527h-5.838a.628.628,0,0,0-.167.021.721.721,0,0,0-.557.7v.028a.453.453,0,0,0,.022.145v.007a.73.73,0,0,0,.7.543H769a.726.726,0,0,0,.723-.723A.588.588,0,0,0,769.694-2113.012Zm10.967-.527H774.83a.725.725,0,0,0-.723.724.726.726,0,0,0,.723.723h5.831a.721.721,0,0,0,.724-.723A.72.72,0,0,0,780.661-2113.539Zm11.67,0H786.5a.725.725,0,0,0-.723.724.726.726,0,0,0,.723.723h5.832a.726.726,0,0,0,.723-.723A.725.725,0,0,0,792.331-2113.539Zm11.669,0H798.17a.721.721,0,0,0-.724.724.722.722,0,0,0,.724.723H804a.725.725,0,0,0,.723-.723A.724.724,0,0,0,804-2113.539Zm11.669,0h-5.838a.725.725,0,0,0-.723.724.726.726,0,0,0,.723.723h5.838a.726.726,0,0,0,.724-.723A.725.725,0,0,0,815.67-2113.539Zm11.663,0H821.5a.725.725,0,0,0-.723.724.726.726,0,0,0,.723.723h5.832a.722.722,0,0,0,.723-.723A.72.72,0,0,0,827.333-2113.539Zm11.669,0h-5.832a.721.721,0,0,0-.723.724.722.722,0,0,0,.723.723H839a.726.726,0,0,0,.723-.723A.725.725,0,0,0,839-2113.539Zm11.669,0h-5.839a.725.725,0,0,0-.724.724.726.726,0,0,0,.724.723h5.839a.726.726,0,0,0,.723-.723A.725.725,0,0,0,850.672-2113.539Zm11.669,0H856.5a.725.725,0,0,0-.724.724.727.727,0,0,0,.724.723h5.839a.726.726,0,0,0,.723-.723A.725.725,0,0,0,862.342-2113.539Zm11.6-.008a1.429,1.429,0,0,1-.188.008h-5.578a.725.725,0,0,0-.724.724.726.726,0,0,0,.724.723h5.578c.109,0,.218-.008.326-.016a.727.727,0,0,0,.651-.789A.723.723,0,0,0,873.939-2113.548Z" transform="translate(-734.648 2207.657)"/></g><path class="k" d="M937.464-2153.689v16.639a8.693,8.693,0,0,1-4.565,7.647,8.793,8.793,0,0,1-2.547.89,8.562,8.562,0,0,1-1.57.145H887.544a8.678,8.678,0,0,1-8.428-6.605c-.029-.116-.058-.231-.08-.34-.007-.036-.015-.065-.022-.1a8.774,8.774,0,0,1-.152-1.636v-16.639a8.681,8.681,0,0,1,8.682-8.683h41.238a8.562,8.562,0,0,1,1.57.146A8.68,8.68,0,0,1,937.464-2153.689Z" transform="translate(-780.831 2200.115)"/><path class="l" d="M931.409-2127.512c-.029.05-.058.107-.094.159a8.794,8.794,0,0,1-2.547.89v1.852a8.6,8.6,0,0,1-4.934,1.542H882.594a8.679,8.679,0,0,1-8.681-8.681v-16.641a8.669,8.669,0,0,1,4.449-7.581,8.57,8.57,0,0,0-1.107,4.239v16.64a8.575,8.575,0,0,0,.173,1.73c.007.035.016.065.022.1.021.109.05.224.079.34a8.689,8.689,0,0,0,8.407,6.512h41.238a8.315,8.315,0,0,0,1.592-.153A8.358,8.358,0,0,0,931.409-2127.512Z" transform="translate(-779.246 2198.066)"/><path class="d" d="M910.719-2142.987a11.938,11.938,0,0,1-11.937,11.938,11.939,11.939,0,0,1-11.938-11.938,11.938,11.938,0,0,1,11.938-11.937A11.937,11.937,0,0,1,910.719-2142.987Z" transform="translate(-783.387 2197.73)"/><path class="l" d="M905.379-2131.6a11.893,11.893,0,0,1-9.261,4.406,11.935,11.935,0,0,1-11.937-11.938,11.9,11.9,0,0,1,4.435-9.282,11.865,11.865,0,0,0-2.67,7.524,11.94,11.94,0,0,0,11.937,11.937A11.87,11.87,0,0,0,905.379-2131.6Z" transform="translate(-782.534 2195.646)"/></g></g></svg>