<svg xmlns="http://www.w3.org/2000/svg" width="48.894" height="48" viewBox="0 0 48.894 48"><defs><style>.a{fill:#fff;}</style></defs><path class="a" d="M1527.925-2436.478l4.294,2.339-7.82,4.224v-8.479Z" transform="translate(-1502.941 2457.905)"/><path class="a" d="M1499.675-2484.114a24.226,24.226,0,0,0-24.447,24,24.226,24.226,0,0,0,24.447,24,24.226,24.226,0,0,0,24.447-24A24.226,24.226,0,0,0,1499.675-2484.114Zm14.479,25.187a45.463,45.463,0,0,1-.292,4.8,6.541,6.541,0,0,1-1.148,2.943,4.106,4.106,0,0,1-2.9,1.255c-4.054.3-10.137.309-10.137.309s-7.528-.073-9.845-.3a4.841,4.841,0,0,1-3.194-1.264,6.547,6.547,0,0,1-1.148-2.943,45.482,45.482,0,0,1-.292-4.8v-2.249a45.342,45.342,0,0,1,.292-4.794,6.531,6.531,0,0,1,1.148-2.943,4.063,4.063,0,0,1,2.9-1.255c4.049-.3,10.133-.3,10.133-.3h.014s6.074,0,10.128.3a4.107,4.107,0,0,1,2.9,1.255,6.542,6.542,0,0,1,1.148,2.943,45.461,45.461,0,0,1,.292,4.8Z" transform="translate(-1475.228 2484.114)"/></svg>